<?xml version="1.0" standalone="no"?>
<!DOCTYPE svg PUBLIC "-//W3C//DTD SVG 20010904//EN"
 "http://www.w3.org/TR/2001/REC-SVG-20010904/DTD/svg10.dtd">
<svg version="1.0" xmlns="http://www.w3.org/2000/svg"
 width="404.000000pt" height="404.000000pt" viewBox="0 0 404.000000 404.000000"
 preserveAspectRatio="xMidYMid meet">
<metadata>
Created by potrace 1.11, written by Peter Selinger 2001-2013
</metadata>
<g transform="translate(0.000000,404.000000) scale(0.100000,-0.100000)"
fill="#000000" stroke="none">
<path d="M1780 4005 c-357 -44 -700 -185 -985 -404 -87 -67 -257 -234 -328
-321 -286 -355 -447 -807 -447 -1260 0 -453 161 -906 447 -1260 72 -89 243
-257 328 -321 352 -269 790 -419 1225 -419 435 0 873 150 1225 419 90 68 258
235 335 331 242 304 388 662 430 1052 52 494 -97 1015 -409 1423 -68 90 -235
258 -331 335 -422 336 -962 490 -1490 425z m110 -180 c28 -25 10 -43 -21 -21
-29 20 -91 21 -129 1 -52 -27 -74 -97 -50 -159 26 -68 142 -87 199 -32 36 34
54 16 21 -19 -53 -57 -159 -59 -215 -5 -79 76 -58 201 40 246 41 19 129 13
155 -11z m350 16 c76 -15 104 -78 55 -126 -15 -16 -36 -25 -54 -25 l-30 0 39
-67 c22 -37 38 -69 35 -71 -12 -12 -36 13 -71 72 -21 36 -41 66 -45 66 -9 0
-19 -38 -19 -75 0 -36 -12 -56 -26 -47 -7 5 -5 49 7 142 9 74 17 136 18 138 2
4 47 1 91 -7z m226 -41 c16 -5 48 -14 72 -20 25 -6 42 -17 42 -25 0 -18 0 -18
-67 1 -63 18 -74 13 -76 -37 -2 -32 0 -33 56 -48 32 -8 57 -21 57 -28 0 -17
-16 -16 -76 2 -27 8 -50 15 -52 15 -4 0 -19 -42 -26 -76 -7 -31 -7 -31 54 -48
39 -11 60 -22 60 -32 0 -10 -6 -14 -17 -10 -10 2 -46 12 -81 22 -49 13 -61 20
-58 33 3 9 19 66 36 126 33 122 38 135 43 135 2 0 17 -4 33 -10z m-886 -142
c19 -72 34 -134 33 -137 -12 -26 -31 12 -59 114 -37 133 -40 155 -21 155 7 0
26 -51 47 -132z m-112 -25 c29 -71 52 -131 52 -136 0 -4 -54 20 -121 54 -67
33 -123 58 -126 56 -2 -3 12 -44 32 -92 26 -62 33 -91 26 -98 -6 -6 -12 -9
-14 -6 -10 12 -107 253 -103 256 2 2 28 -8 57 -22 29 -15 85 -42 125 -60 69
-31 72 -32 64 -12 -4 12 -22 55 -39 96 -28 68 -32 91 -12 91 4 0 30 -57 59
-127z m1342 45 c40 -20 90 -76 90 -99 0 -18 -29 -8 -35 11 -12 37 -70 72 -119
72 -56 0 -90 -23 -110 -74 -36 -88 34 -176 130 -165 45 5 68 -8 43 -24 -24
-15 -88 -10 -128 11 -78 39 -106 108 -77 184 36 95 118 128 206 84z m-1671
-136 c51 -37 73 -82 68 -135 -5 -61 -30 -96 -89 -125 -57 -29 -105 -23 -153
19 -43 38 -59 79 -52 135 12 106 143 168 226 106z m1990 -59 c50 -38 73 -83
68 -136 -5 -61 -30 -96 -89 -125 -61 -30 -108 -22 -161 27 -79 74 -64 189 31
241 45 25 112 21 151 -7z m-809 -97 c269 -63 470 -171 662 -355 217 -208 347
-440 410 -734 31 -147 31 -409 0 -554 -59 -274 -173 -490 -361 -685 -208 -217
-434 -344 -732 -409 -150 -34 -408 -34 -558 0 -282 62 -505 182 -704 378 -201
198 -333 443 -394 733 -25 119 -25 401 0 520 64 302 196 542 415 751 215 207
484 337 778 378 120 17 364 5 484 -23z m-1494 -59 c32 -28 37 -76 10 -106 -17
-19 -16 -20 41 -26 93 -10 106 -14 94 -29 -8 -9 -25 -10 -63 -5 -29 4 -71 8
-93 8 l-39 1 49 -50 c32 -33 46 -53 39 -60 -6 -6 -44 24 -109 91 l-100 100 52
49 c58 56 79 61 119 27z m2536 -64 c64 -71 73 -109 33 -148 -29 -30 -64 -32
-98 -5 -30 24 -28 26 -48 -78 -10 -52 -14 -61 -25 -50 -11 11 -10 26 2 83 8
38 13 79 12 90 -3 17 -9 14 -51 -24 -34 -31 -51 -41 -58 -34 -12 12 -4 20 131
137 36 31 67 56 71 56 3 0 17 -12 31 -27z m-2755 -111 c-9 -10 -17 -23 -17
-28 1 -5 46 -42 100 -82 86 -64 111 -92 81 -92 -4 0 -50 32 -101 70 -51 39
-96 70 -100 70 -4 0 -15 -9 -25 -20 -12 -13 -22 -17 -28 -11 -6 6 8 32 38 71
33 43 51 58 58 51 7 -7 6 -16 -6 -29z m2943 -138 c40 -71 46 -110 27 -156 -32
-76 -145 -115 -206 -71 -32 24 -109 135 -95 140 5 2 59 35 119 73 61 38 113
69 117 69 3 1 20 -24 38 -55z m-3040 -48 c0 -8 -12 -21 -27 -28 -63 -30 -91
-119 -56 -179 18 -31 67 -59 103 -59 36 0 85 28 103 59 10 17 17 50 17 80 0
39 4 51 15 51 9 0 15 -10 16 -27 2 -55 -3 -79 -26 -119 -76 -130 -275 -75
-275 76 0 55 27 102 79 137 39 27 51 29 51 9z m3170 -199 c0 -20 -252 -130
-261 -115 -5 7 -7 13 -6 15 7 6 244 111 255 112 6 1 12 -5 12 -12z m-3371
-159 c-10 -35 -19 -66 -19 -69 0 -6 54 -20 77 -20 3 0 15 27 25 60 14 45 22
59 33 55 18 -7 19 0 -5 -69 -11 -32 -20 -59 -20 -61 0 -3 91 -34 100 -34 4 0
15 27 25 60 10 34 24 60 32 60 7 0 13 -4 13 -8 0 -21 -49 -147 -56 -146 -23 3
-250 77 -257 83 -6 6 8 57 38 139 2 6 11 12 19 12 12 0 11 -10 -5 -62z m3412
35 c-6 -10 -39 -63 -74 -118 -36 -55 -63 -101 -62 -103 2 -2 46 9 99 24 88 25
124 27 100 5 -12 -12 -254 -84 -261 -78 -2 3 27 56 66 118 39 62 69 114 67
116 -1 2 -46 -10 -99 -26 -54 -16 -97 -25 -97 -20 0 5 -1 12 -2 15 -3 7 226
81 255 83 14 1 16 -3 8 -16z m-3211 -260 c0 -27 -24 -133 -29 -133 -14 0 -273
49 -277 52 -1 2 0 9 5 16 5 9 31 7 112 -8 149 -29 145 -29 153 30 5 34 11 50
21 50 8 0 15 -3 15 -7z m3261 -86 c67 -45 88 -140 48 -218 -16 -32 -23 -38
-34 -29 -12 10 -11 16 6 43 51 84 -7 197 -101 197 -66 0 -120 -56 -120 -125 0
-59 39 -115 79 -115 6 0 11 20 11 45 0 33 4 45 15 45 11 0 15 -11 15 -37 0
-21 3 -49 7 -62 6 -23 5 -24 -41 -19 -53 6 -82 28 -102 75 -46 107 25 223 136
223 32 0 58 -7 81 -23z m-3551 -147 l0 -70 39 0 c45 0 51 9 51 81 0 38 4 49
16 49 13 0 15 -12 13 -67 l-3 -68 49 -3 c58 -4 65 4 65 76 0 39 4 52 15 52 16
0 21 -68 9 -129 -6 -30 -8 -31 -63 -31 -31 0 -93 3 -138 7 l-83 6 0 77 c0 42
3 80 7 83 17 18 23 1 23 -63z m400 -810 c16 -33 30 -66 30 -75 0 -24 -19 -18
-32 10 -6 14 -15 25 -20 25 -4 0 -57 -25 -117 -54 -101 -51 -121 -57 -121 -34
0 4 52 33 115 63 l116 54 -15 29 c-14 28 -13 42 6 42 4 0 21 -27 38 -60z
m2958 -22 c68 -42 79 -113 31 -204 -17 -32 -32 -60 -34 -62 -2 -2 -60 27 -128
64 l-126 68 19 36 c62 121 145 155 238 98z m-2876 -126 c41 -63 49 -87 31 -87
-7 0 -27 24 -45 52 l-33 53 -38 -23 -37 -23 34 -54 c32 -51 37 -70 16 -70 -4
0 -22 23 -39 50 -17 28 -34 50 -38 50 -3 0 -26 -11 -49 -25 l-43 -26 35 -55
c26 -40 33 -59 25 -67 -6 -6 -12 -9 -14 -6 -24 35 -77 121 -79 129 -3 8 215
158 232 159 3 1 22 -25 42 -57z m2673 -77 c26 -25 32 -63 15 -96 -10 -18 -7
-19 71 -19 71 0 80 -2 69 -15 -9 -11 -34 -15 -96 -15 -46 0 -84 -4 -84 -9 0
-5 23 -26 51 -46 32 -25 47 -41 41 -47 -12 -12 -12 -12 -140 81 l-101 74 32
45 c56 78 98 92 142 47z m-2581 -69 c47 -19 87 -76 94 -131 4 -37 2 -45 -12
-45 -11 0 -16 9 -16 31 0 71 -77 137 -145 125 -45 -9 -81 -40 -95 -81 -22 -67
14 -135 85 -159 53 -19 61 -41 11 -33 -110 18 -171 151 -108 236 48 65 117 86
186 57z m2457 -171 c68 -25 130 -48 138 -51 11 -3 12 -7 3 -16 -9 -9 -23 -8
-59 5 l-47 18 -45 -45 -44 -45 17 -45 c16 -42 15 -66 -3 -66 -4 0 -14 21 -23
48 -8 26 -32 91 -51 145 -25 67 -32 97 -23 97 7 0 68 -20 137 -45z m-2298 9
c3 -4 -10 -26 -30 -50 -40 -50 -40 -51 30 -106 l40 -32 39 44 c27 31 42 40 49
33 8 -8 -15 -41 -77 -114 -48 -57 -90 -105 -95 -107 -4 -2 -10 2 -14 8 -3 6
12 31 34 57 23 25 41 49 41 53 0 4 -23 26 -51 50 l-52 44 -47 -54 c-31 -36
-49 -49 -54 -41 -9 13 -10 12 93 133 72 87 81 94 94 82z m2095 -123 c44 -22
82 -84 82 -132 0 -81 -68 -149 -149 -149 -154 0 -209 201 -75 277 48 28 93 29
142 4z m-1908 -141 c12 -69 24 -131 26 -139 3 -9 28 23 60 77 48 80 74 105 74
72 0 -13 -142 -242 -146 -237 -2 2 -13 57 -25 123 -27 158 -26 155 -51 114
-80 -130 -90 -142 -100 -132 -8 8 9 45 62 132 40 66 74 119 76 118 1 -2 12
-59 24 -128z m1631 -11 c16 -16 20 -29 16 -55 -5 -31 -3 -34 18 -34 53 0 82
-71 49 -118 -15 -22 -82 -62 -103 -62 -11 0 -59 90 -106 195 l-24 55 37 20
c49 25 87 25 113 -1z m-1297 -42 c132 -75 78 -277 -73 -277 -87 0 -151 64
-151 151 0 116 122 185 224 126z m1046 -20 c0 -2 -10 -39 -23 -83 -23 -80 -23
-81 -6 -145 13 -47 14 -66 6 -71 -16 -9 -16 -8 -33 59 -13 49 -25 68 -82 126
-50 50 -62 67 -47 67 11 0 41 -21 66 -46 l48 -47 17 59 c17 60 30 84 45 84 5
0 9 -1 9 -3z m-890 -47 c0 -11 -11 -68 -25 -126 -14 -58 -25 -107 -25 -109 0
-2 23 -8 50 -15 32 -8 50 -17 50 -27 0 -15 -15 -14 -101 8 l-36 9 29 128 c16
70 31 133 33 140 7 19 25 14 25 -8z m297 -31 c106 -40 131 -169 48 -249 -33
-32 -41 -35 -98 -35 -78 0 -118 25 -142 90 -47 121 70 240 192 194z m353 -4
c17 -9 30 -19 30 -24 0 -17 -14 -19 -41 -6 -15 8 -49 15 -74 15 -38 0 -52 -6
-83 -34 -32 -30 -37 -40 -37 -79 0 -81 70 -138 151 -123 42 8 84 46 84 76 0
19 -5 21 -41 18 -25 -2 -44 2 -46 8 -4 13 41 24 95 24 34 0 35 0 29 -36 -9
-53 -33 -83 -84 -106 -174 -77 -312 164 -150 262 39 24 125 27 167 5z"/>
<path d="M2168 3779 c-3 -24 -3 -47 -1 -51 2 -5 26 -8 53 -8 40 0 51 4 60 21
9 16 8 26 -5 45 -8 13 -22 24 -29 24 -7 0 -27 3 -44 6 -29 6 -30 5 -34 -37z"/>
<path d="M1014 3526 c-72 -32 -95 -112 -51 -177 85 -126 277 -2 197 128 -31
52 -93 72 -146 49z"/>
<path d="M3004 3471 c-41 -18 -74 -69 -74 -116 0 -106 125 -158 200 -83 74 73
33 190 -71 203 -19 3 -43 1 -55 -4z"/>
<path d="M1870 3354 c-455 -56 -845 -324 -1047 -720 -110 -215 -148 -373 -148
-619 0 -141 4 -188 23 -274 121 -541 516 -931 1063 -1048 117 -25 381 -25 498
0 131 28 237 65 346 119 368 183 625 516 717 929 33 150 33 398 0 548 -120
539 -518 933 -1057 1046 -77 16 -322 28 -395 19z m397 -63 c422 -86 771 -373
939 -773 91 -216 125 -496 86 -710 l-7 -38 -298 231 c-323 250 -304 240 -361
180 -17 -17 -33 -31 -38 -31 -4 0 -132 103 -284 229 l-276 229 -260 -229
c-143 -126 -265 -229 -271 -229 -6 0 -29 18 -52 39 l-40 39 -330 -244 c-294
-216 -331 -241 -337 -223 -4 11 -13 72 -20 136 -34 326 71 670 286 939 215
268 517 431 886 478 75 9 279 -3 377 -23z m6 -1058 c133 -103 259 -200 280
-217 l38 -30 49 49 c48 47 51 49 73 35 54 -35 530 -415 534 -428 6 -14 -63
-198 -76 -207 -5 -2 -79 76 -167 175 -87 99 -161 176 -165 172 -4 -4 -14 -31
-24 -59 -9 -29 -20 -53 -25 -53 -5 0 -118 89 -252 198 -370 300 -388 315 -393
311 -2 -2 -16 -70 -31 -150 l-27 -146 151 -218 c84 -120 150 -220 148 -222 -3
-3 -274 120 -327 148 -13 6 -67 -33 -235 -171 -121 -99 -220 -176 -222 -171
-2 5 20 100 48 211 28 111 50 206 48 211 -2 5 -139 -124 -305 -286 l-302 -295
-61 72 c-64 76 -130 170 -130 185 0 4 8 18 18 30 17 22 18 22 72 8 30 -8 63
-15 72 -15 11 0 51 64 129 208 61 114 123 227 138 252 31 55 39 61 -183 -137
l-169 -152 -46 24 -47 23 -34 -29 c-19 -16 -37 -29 -40 -29 -6 0 -30 60 -30
73 0 5 558 408 598 431 10 6 29 -7 61 -38 l48 -47 269 235 c148 129 270 235
272 236 2 0 112 -84 245 -187z"/>
<path d="M732 3285 l-37 -34 32 -33 33 -32 30 29 c35 34 41 79 11 95 -27 14
-27 14 -69 -25z"/>
<path d="M3290 3221 l-35 -29 29 -31 c16 -17 38 -33 48 -37 22 -7 58 21 58 43
0 16 -48 83 -59 83 -4 0 -22 -13 -41 -29z"/>
<path d="M3410 2975 c-47 -30 -89 -56 -94 -58 -13 -4 49 -94 74 -107 28 -15
78 -12 111 7 28 17 59 67 59 95 0 18 -50 118 -58 117 -4 0 -45 -25 -92 -54z"/>
<path d="M3453 1305 c-20 -8 -45 -33 -63 -61 l-30 -48 43 -24 c66 -38 159 -84
162 -80 14 17 45 93 45 112 0 77 -85 132 -157 101z"/>
<path d="M3279 1079 c-16 -17 -29 -37 -29 -44 0 -12 58 -55 73 -55 9 0 47 66
47 83 0 20 -27 47 -47 47 -8 0 -28 -14 -44 -31z"/>
<path d="M3152 868 c3 -7 11 -30 19 -50 7 -21 16 -38 19 -38 4 0 19 13 35 30
l28 29 -26 11 c-15 5 -39 15 -53 20 -20 8 -25 7 -22 -2z"/>
<path d="M2924 735 c-82 -42 -85 -168 -4 -210 90 -47 190 20 177 118 -11 81
-101 129 -173 92z"/>
<path d="M2683 590 c-27 -11 -27 -10 -6 -55 19 -40 31 -43 61 -15 50 47 11 96
-55 70z"/>
<path d="M2758 490 c-14 -4 -31 -11 -37 -14 -16 -10 36 -109 52 -100 71 41 87
79 45 108 -25 18 -23 17 -60 6z"/>
<path d="M1339 544 c-38 -24 -59 -66 -59 -114 0 -34 6 -48 34 -76 28 -28 42
-34 75 -34 57 0 95 22 116 66 36 77 -11 162 -96 170 -30 3 -52 -1 -70 -12z"/>
<path d="M1809 427 c-39 -26 -62 -81 -52 -127 3 -17 21 -44 40 -60 27 -24 43
-30 79 -30 39 0 51 5 80 34 29 29 34 41 34 83 0 55 -17 86 -60 108 -41 21 -82
19 -121 -8z"/>
</g>
</svg>
